<?xml version="1.0" standalone="no"?>
<!DOCTYPE svg PUBLIC "-//W3C//DTD SVG 20010904//EN"
 "http://www.w3.org/TR/2001/REC-SVG-20010904/DTD/svg10.dtd">
<svg version="1.0" xmlns="http://www.w3.org/2000/svg"
 width="386.000000pt" height="130.000000pt" viewBox="0 0 386.000000 130.000000"
 preserveAspectRatio="xMidYMid meet">

<g transform="translate(0.000000,130.000000) scale(0.100000,-0.100000)"
fill="#000000" stroke="none">
<path d="M1025 754 c-6 -1 -22 -5 -37 -8 -15 -4 -43 -20 -63 -37 l-35 -31 0
36 0 36 -85 0 -85 0 0 -35 c0 -31 3 -35 35 -41 l35 -6 0 -159 0 -158 -36 -7
c-32 -6 -35 -9 -32 -38 l3 -31 118 -3 117 -3 0 35 c0 30 -4 35 -30 41 l-30 7
0 139 0 139 33 20 c45 28 92 26 122 -5 24 -23 25 -29 25 -159 l0 -134 -30 -7
c-26 -6 -30 -11 -30 -41 l0 -34 120 0 120 0 0 34 c0 31 -3 34 -34 40 l-34 7
-4 152 c-3 137 -5 156 -26 189 -12 20 -30 39 -40 43 -23 10 -85 22 -97 19z"/>
<path d="M1400 739 c-135 -56 -174 -290 -68 -405 47 -51 91 -68 174 -66 59 0
154 33 154 53 0 14 -23 59 -30 59 -4 0 -24 -7 -43 -15 -47 -19 -121 -19 -152
1 -21 13 -55 78 -55 104 0 6 59 10 151 10 l152 0 -7 71 c-12 136 -64 192 -181
196 -38 2 -81 -2 -95 -8z m149 -95 c12 -15 21 -41 21 -60 l0 -34 -88 0 c-49 0
-91 3 -95 6 -9 9 14 67 36 92 31 33 98 31 126 -4z"/>
<path d="M1730 716 c0 -28 5 -35 29 -42 26 -8 151 -143 151 -163 0 -5 -32 -45
-71 -90 -52 -60 -76 -81 -95 -81 -21 0 -24 -5 -24 -35 l0 -35 110 0 110 0 0
35 c0 29 -4 35 -20 35 -25 0 -18 15 32 73 l33 38 43 -56 c43 -54 43 -55 18
-55 -23 0 -26 -4 -26 -35 l0 -36 113 3 112 3 3 33 c3 28 0 32 -21 32 -25 0
-72 45 -146 139 l-30 37 62 78 c44 55 69 79 90 83 24 5 28 10 25 37 l-3 31
-102 3 -103 3 0 -36 c0 -28 4 -35 20 -35 11 0 20 -2 20 -5 0 -3 -17 -28 -37
-56 l-38 -50 -23 28 c-13 15 -32 40 -43 56 l-20 27 20 0 c17 0 21 6 21 35 l0
35 -105 0 -105 0 0 -34z"/>
<path d="M2375 734 c-46 -24 -64 -44 -76 -84 -25 -84 23 -140 157 -179 82 -24
109 -48 100 -86 -7 -29 -40 -45 -91 -45 -55 0 -81 15 -88 49 -6 28 -10 31 -47
31 l-40 0 0 -60 0 -59 56 -17 c77 -22 191 -21 239 2 48 23 75 67 75 124 0 75
-41 111 -165 144 -32 8 -67 24 -78 35 -44 43 13 101 87 87 38 -7 50 -19 59
-56 6 -23 10 -25 45 -22 l38 4 -4 56 c-3 32 -10 60 -16 64 -45 31 -202 38
-251 12z"/>
<path d="M2690 716 c0 -29 4 -34 28 -39 26 -5 34 -21 110 -206 l81 -201 -29
-72 c-33 -80 -58 -108 -100 -108 -28 0 -40 -18 -40 -61 0 -22 54 -32 99 -19
76 21 89 45 227 403 92 241 101 258 127 264 23 5 27 10 27 39 l0 34 -110 0
-110 0 0 -34 c0 -30 3 -35 28 -38 18 -2 26 -8 24 -18 -5 -29 -87 -250 -92
-250 -3 0 -25 55 -50 122 -25 67 -47 125 -48 130 -2 4 10 11 27 14 27 6 31 11
31 40 l0 34 -115 0 -115 0 0 -34z"/>
<path d="M3319 730 c-47 -25 -69 -60 -69 -109 0 -82 33 -114 157 -150 80 -24
103 -41 103 -76 0 -32 -36 -55 -85 -55 -67 0 -84 9 -95 49 -9 35 -11 36 -50
33 l-40 -4 0 -59 0 -58 56 -17 c66 -19 185 -21 229 -4 71 27 106 96 83 166
-16 48 -59 77 -152 105 -108 32 -133 66 -80 108 49 38 128 21 138 -30 5 -26 9
-29 47 -29 l42 0 -7 57 c-4 32 -12 61 -19 65 -51 33 -202 38 -258 8z"/>
<path d="M3687 725 c-32 -33 -41 -68 -27 -111 24 -72 102 -96 158 -49 37 31
48 73 32 120 -15 45 -44 65 -96 65 -31 0 -48 -6 -67 -25z m108 -1 c19 -8 45
-55 45 -84 0 -29 -53 -80 -83 -80 -34 0 -74 34 -82 69 -7 31 15 85 37 94 19 8
64 8 83 1z"/>
<path d="M3710 650 c0 -47 3 -60 15 -60 9 0 15 10 15 26 0 20 4 25 16 20 9 -3
18 -6 20 -6 2 0 4 -9 4 -20 0 -11 4 -20 10 -20 12 0 10 91 -3 108 -5 6 -25 12
-43 12 l-34 0 0 -60z m63 25 c1 -5 -6 -11 -15 -13 -11 -2 -18 3 -18 13 0 17
30 18 33 0z"/>
</g>
</svg>
